<?xml version="1.0" encoding="UTF-8"?>
<svg width="211px" height="212px" viewBox="0 0 211 212" version="1.1" xmlns="http://www.w3.org/2000/svg" xmlns:xlink="http://www.w3.org/1999/xlink">
    <title>reach_l_red copy</title>
    <g id="Social-" stroke="none" stroke-width="1" fill="none" fill-rule="evenodd">
        <g id="Event-1" transform="translate(-115.000000, -127.000000)" fill-rule="nonzero">
            <g id="reach_l_red-copy" transform="translate(115.000000, 127.000000)">
                <polygon id="Rectangle" fill="#6AC6E7" transform="translate(82.602426, 65.249324) rotate(45.000000) translate(-82.602426, -65.249324) " points="52.6112991 4.66710399 112.790564 4.56933204 112.593552 125.831544 52.414287 125.929316"></polygon>
                <path d="M178.776936,60.1785161 L180.178909,60.1808691 L180.272475,117.771552 L123.104074,117.678671 L123.101034,115.850195 C123.053399,85.0528995 147.979637,60.1285555 178.776936,60.1785161 Z" id="Path" fill="#F45747" transform="translate(151.686755, 88.975034) rotate(-45.000000) translate(-151.686755, -88.975034) "></path>
                <path d="M0.552083333,174.36992 L9.13328412,174.36992 L9.13328412,177.630247 C10.706939,176.006493 12.1052603,174.894079 13.328248,174.293006 C14.7052248,173.639878 16.2208464,173.319066 17.7492618,173.357211 C20.0126586,173.357211 22.377488,174.082203 24.84375,175.532186 L20.9313484,183.253562 C19.3055282,182.114086 17.7115868,181.544348 16.1495243,181.544348 C11.4720308,181.544348 9.13328412,185.018326 9.13328412,191.966283 L9.13328412,210.895833 L0.552083333,210.895833 L0.552083333,174.36992 Z" id="Path" fill="#F45747"></path>
                <path d="M67.5790357,194.648196 L42.2178551,194.648196 C42.4498045,197.653505 43.3941699,200.042341 45.0509512,201.814703 C46.7077326,203.587065 48.8518838,204.463256 51.4834048,204.443278 C53.5157233,204.443278 55.198737,203.942393 56.532446,202.940623 C57.866155,201.938854 59.3558776,200.083725 61.0016137,197.375236 L67.90625,201.356629 C66.9459932,203.088749 65.8102337,204.710403 64.5181321,206.194235 C63.4000981,207.472455 62.1163491,208.584659 60.7033931,209.499219 C59.3430834,210.364212 57.860314,211.004108 56.3087805,211.395732 C54.6307956,211.810233 52.9103764,212.012922 51.1851842,211.999362 C45.9055743,211.999362 41.6655947,210.245552 38.4652454,206.73793 C35.264896,203.230309 33.6688633,198.549675 33.6771152,192.696029 C33.6771152,186.913734 35.2276185,182.231673 38.3285609,178.649847 C41.4571164,175.119393 45.5990697,173.354167 50.754421,173.354167 C55.9649984,173.354167 60.0834807,175.066594 63.109868,178.491448 C66.1362553,181.916301 67.6384037,186.635465 67.6163133,192.648937 L67.5790357,194.648196 Z M59.1874381,187.738553 C58.0497816,183.229162 55.2995246,180.975894 50.936667,180.978748 C49.9859708,180.970694 49.0407709,181.128452 48.1408485,181.445384 C47.278519,181.753522 46.473165,182.210982 45.7592253,182.798201 C45.0373242,183.401974 44.4172859,184.125296 43.9243399,184.938735 C43.3970572,185.808953 43.0056791,186.759583 42.764593,187.755677 L59.1874381,187.738553 Z" id="Shape" fill="#F45747"></path>
                <path d="M110.12524,174.36377 L118.697917,174.36377 L118.697917,210.946688 L110.12524,210.946688 L110.12524,207.114559 C106.609131,210.374367 102.830755,212.002843 98.7901121,211.999993 C93.6802261,211.999993 89.4580135,210.171699 86.1234742,206.51512 C82.8119914,202.784325 81.15625,198.127253 81.15625,192.543905 C81.15625,187.057609 82.8119914,182.490453 86.1234742,178.842437 C89.2375664,175.270676 93.7972644,173.259877 98.5609886,173.357568 C102.858135,173.357568 106.712885,175.110214 110.12524,178.615506 L110.12524,174.36377 Z M89.8672655,192.543905 C89.8672655,196.046342 90.815462,198.900815 92.7118551,201.107322 C94.5211215,203.269849 97.225956,204.499013 100.061099,204.447055 C103.231361,204.447055 105.784863,203.370919 107.721605,201.218646 C109.666993,198.992158 110.639687,196.161948 110.639687,192.728018 C110.639687,189.294088 109.672757,186.471015 107.738897,184.258798 C105.790627,182.080836 103.261623,180.991855 100.151884,180.991855 C97.3254698,180.945726 94.627545,182.159175 92.8026399,184.297334 C90.8457236,186.512404 89.8672655,189.261261 89.8672655,192.543905 Z" id="Shape" fill="#F45747"></path>
                <path d="M163.96875,175.936316 L163.96875,187.168213 C162.065782,184.813069 160.358748,183.197297 158.847651,182.320898 C157.259186,181.393868 155.449469,180.927222 153.616602,180.972043 C150.656128,180.895968 147.806299,182.112651 145.793287,184.312066 C143.712709,186.541602 142.673829,189.334946 142.676648,192.692098 C142.676648,196.117762 143.677468,198.933944 145.679109,201.140643 C147.67017,203.326989 150.498951,204.532727 153.434763,204.446409 C155.285456,204.484703 157.113776,204.031462 158.737701,203.131811 C160.220607,202.275395 161.96429,200.622511 163.96875,198.173161 L163.96875,209.332264 C160.848367,211.039099 157.365855,211.954487 153.819585,212 C148.234725,212 143.560471,210.171552 139.796823,206.514655 C136.033174,202.857758 134.154169,198.290205 134.159807,192.811996 C134.058319,187.595666 136.132411,182.577534 139.872941,178.989439 C143.684516,175.235482 148.358771,173.357076 153.895704,173.354167 C157.414069,173.346176 160.877951,174.234098 163.96875,175.936316 L163.96875,175.936316 Z" id="Path" fill="#F45747"></path>
                <path d="M179.427083,147.958333 L187.729286,147.958333 L187.729286,177.62371 C190.68174,174.941662 193.939815,173.600638 197.50351,173.600638 C201.560682,173.600638 204.807541,174.930334 207.244087,177.589725 C209.313329,179.895096 210.346548,183.576894 210.34375,188.635118 L210.34375,210.883089 L202.041542,210.883089 L202.041542,189.433785 C202.041542,186.527997 201.531241,184.422292 200.51064,183.116669 C199.490038,181.811047 197.848383,181.159652 195.585676,181.162485 C192.68369,181.162485 190.642487,182.068773 189.462065,183.881351 C188.281644,185.693928 187.704051,188.847529 187.729286,193.342155 L187.729286,210.895833 L179.427083,210.895833 L179.427083,147.958333 Z" id="Path" fill="#F45747"></path>
            </g>
        </g>
    </g>
</svg>